# xmcd
#
# Track frame offsets:
#	150
#	23955
#	42280
#	53168
#	70306
#	81803
#	106961
#	122637
#	143219
#	159091
#	173905
#
# Disc length: 2525 seconds
#
# Revision: 0
# Processed by: cddbd v1.5.1PL2 Copyright (c) Steve Scherf et al.
# Submitted via: EasyCDDAExtractor 8.0.1.1
#
DISCID=8c09db0b
DTITLE=Krausberry - Siksa a Gadzo
DYEAR=1998
DGENRE=Blues
TTITLE0=Siksa a Gadzo
TTITLE1=Druha lavice
TTITLE2=Do nebe
TTITLE3=Emil
TTITLE4=Korenova zelenina
TTITLE5=Horoskop
TTITLE6=Velkej kluk
TTITLE7=Tahne mi na ctyricet
TTITLE8=Disco boy
TTITLE9=Nas dum
TTITLE10=Stary casy
EXTD=
EXTT0=
EXTT1=
EXTT2=
EXTT3=
EXTT4=
EXTT5=
EXTT6=
EXTT7=
EXTT8=
EXTT9=
EXTT10=
PLAYORDER=
